<svg width="512" height="512" viewBox="0 0 512 512" fill="none" xmlns="http://www.w3.org/2000/svg">
<rect width="512" height="512" fill="#191919"/>
<g clip-path="url(#clip0_2_490)">
<path d="M473.418 84.3547L478.209 97.6773L483 111L468.091 108.166L453.193 105.333L463.311 94.8438L473.418 84.3547Z" fill="white"/>
<path d="M449.028 61.5732L453.808 74.8959L458.598 88.2186L443.701 85.3851L428.792 82.5515L438.91 72.0624L449.028 61.5732Z" fill="white"/>
<path d="M424.626 38.7814L429.417 52.1144L434.208 65.4371L419.299 62.6036L404.401 59.7597L414.508 49.2706L424.626 38.7814Z" fill="white"/>
<path d="M400.225 16L405.016 29.3227L409.807 42.6556L394.898 39.8118L380 36.9783L390.118 26.4892L400.225 16Z" fill="white"/>
</g>
<g filter="url(#filter0_d_2_490)">
<mask id="mask0_2_490" style="mask-type:alpha" maskUnits="userSpaceOnUse" x="89" y="89" width="335" height="335">
<rect x="89" y="89" width="334.547" height="334.547" fill="#D9D9D9"/>
</mask>
<g mask="url(#mask0_2_490)">
<path d="M256.273 395.668C236.991 395.668 218.869 392.009 201.91 384.69C184.95 377.372 170.197 367.382 157.652 354.721C145.106 342.059 135.174 327.248 127.856 310.289C120.538 293.329 116.879 275.324 116.879 256.273C116.879 219.798 128.96 188.435 153.121 162.182C177.283 135.929 207.021 121.061 242.334 117.576V159.394C218.405 162.647 198.483 173.392 182.569 191.629C166.654 209.866 158.697 231.415 158.697 256.273C158.697 283.223 168.223 306.223 187.273 325.274C206.324 344.324 229.324 353.849 256.273 353.849C271.607 353.849 285.953 350.597 299.312 344.092C312.67 337.587 323.88 328.758 332.94 317.607L369.183 338.516C356.638 355.94 340.491 369.822 320.743 380.16C300.996 390.499 279.506 395.668 256.273 395.668ZM383.819 312.728L347.577 291.819C349.668 286.243 351.236 280.493 352.281 274.569C353.327 268.645 353.85 262.546 353.85 256.273C353.85 231.415 345.893 209.866 329.978 191.629C314.064 173.392 294.142 162.647 270.213 159.394V117.576C305.526 121.061 335.264 135.929 359.425 162.182C383.587 188.435 395.668 219.798 395.668 256.273C395.668 266.496 394.739 276.369 392.88 285.895C391.022 295.42 388.001 304.364 383.819 312.728Z" fill="white"/>
</g>
</g>
<defs>
<filter id="filter0_d_2_490" x="80.6789" y="81.3757" width="351.189" height="350.492" filterUnits="userSpaceOnUse" color-interpolation-filters="sRGB">
<feFlood flood-opacity="0" result="BackgroundImageFix"/>
<feColorMatrix in="SourceAlpha" type="matrix" values="0 0 0 0 0 0 0 0 0 0 0 0 0 0 0 0 0 0 127 0" result="hardAlpha"/>
<feOffset/>
<feGaussianBlur stdDeviation="18.1"/>
<feComposite in2="hardAlpha" operator="out"/>
<feColorMatrix type="matrix" values="0 0 0 0 1 0 0 0 0 1 0 0 0 0 1 0 0 0 0.25 0"/>
<feBlend mode="normal" in2="BackgroundImageFix" result="effect1_dropShadow_2_490"/>
<feBlend mode="normal" in="SourceGraphic" in2="effect1_dropShadow_2_490" result="shape"/>
</filter>
<clipPath id="clip0_2_490">
<rect width="103" height="95" fill="white" transform="translate(380 16)"/>
</clipPath>
</defs>
</svg>
